<?xml version="1.0" encoding="utf-8"?>
<!-- Generator: Adobe Illustrator 23.0.1, SVG Export Plug-In . SVG Version: 6.00 Build 0)  -->
<svg version="1.1" id="Calque_1" xmlns="http://www.w3.org/2000/svg" xmlns:xlink="http://www.w3.org/1999/xlink" x="0px" y="0px"
	 viewBox="0 0 110 110" style="enable-background:new 0 0 110 110;" xml:space="preserve">
<style type="text/css">
	.st0{fill:#C1272D;}
	.st1{fill:#FFFFFF;}
	.st2{fill:#E49F24;}
</style>
<g id="slices">
	<g id="svg" transform="translate(-208.000000, -598.000000)">
		<g id="u_logo_lecho" transform="translate(208.000000, 598.000000)">
			<rect id="Rectangle-path" class="st0" width="110" height="110"/>
			<path id="Shape" class="st1" d="M23.1,100.4l-0.2,7H3v-1.1c1.2,0,1.9-0.2,2.3-0.6c0.7-0.7,0.8-1.1,0.8-12.8
				c0-11.7-0.1-12.1-0.8-12.8c-0.3-0.3-1-0.6-2.2-0.6v-1.2h14v1.2c-1.3,0-2.4,0.2-2.7,0.5c-0.7,0.7-0.8,1.6-0.8,13.3v8.4
				c0,3.7,0.3,4,2.9,4h1.1c2.2,0,3.6-2.6,4.5-4.8l0.2-0.6L23.1,100.4"/>
			<path class="st2" d="M18,85.9l-0.1-0.9c3-0.1,6.3-2,7.1-4.5c0.2-0.5,0.1-1.2-0.3-1.2c-0.8,0-1.2,0.8-3.5,0.8
				C18,80,17,77.5,17,76.1c0-2.6,1.9-4.6,4.6-4.6c3.3,0,5.5,2.7,5.5,6.4C27.2,82.7,22.2,85.9,18,85.9"/>
			<path class="st1" d="M48.4,101.3l-0.2,6.1H27.8v-1.1c1.2,0,1.9-0.2,2.3-0.6c0.7-0.7,0.8-1.1,0.8-12.8c0-11.7-0.1-12.2-0.8-12.9
				c-0.3-0.3-1-0.5-2.3-0.5v-1.2h20.3l0.2,6.1h-0.9l-0.1-0.6c-0.5-2.2-2.2-3.8-4.7-3.8h-4.3v11.5h2.7c3.3,0,4.5-0.8,5.2-3.5h0.9v8.7
				h-0.9c-0.6-2.7-1.9-3.6-5.2-3.6h-2.7v8.6c0,3.7,0.3,4,2.9,4h1.6c2,0,3.8-1.7,4.4-3.9l0.2-0.6H48.4"/>
			<path class="st1" d="M62.4,93.9c-2.2,0-2.9-1.7-2.9-2.8c0-1.3,0.6-2.5,1.7-2.9c-0.3-0.2-0.8-0.4-1.5-0.4c-2.3,0-3.8,2.8-3.8,9.6
				c0,5.2,1.3,8.2,4.7,8.2c1.9,0,3.9-1.6,4.3-2l0.5,0.5c-1.2,2.1-2.9,4.1-7.3,4.1c-7.6,0-9.1-6.9-9.1-10.5c0-5.3,2.5-11.3,10.1-11.3
				c4.4,0,6.4,2.1,6.4,4.4C65.4,92.9,63.7,93.9,62.4,93.9"/>
			<path class="st1" d="M89,107.3h-9.6V93.5c0-2.7-0.3-3.8-2.1-3.8c-2.1,0-3.1,1.6-3.2,2.7v0v2c0,10.5,0,10.7,0.6,11.4
				c0.3,0.3,0.9,0.5,2.1,0.5v1.2h-6.6l-5.7,0v-1.2c1.1,0,1.8-0.2,2.1-0.5c0.6-0.6,0.6-3.7,0.6-14.2v-8.3c0-2.4-0.1-2.3-1.5-3
				l-1.2-0.4V79l9.6-1.9l0,12.3c0.7-1.2,2.4-3.2,6.7-3.2c3.2,0,5.5,2.1,5.5,6.2v1.8c0,10.5,0,10.8,0.6,11.4c0.3,0.3,0.9,0.5,2.1,0.5
				V107.3"/>
			<path class="st1" d="M97.8,108.1c-4.7,0-10-3.3-10-10.7c0-8.7,6-11.1,10.3-11.1c4.7,0,10,3,10,10.6
				C108.1,103.4,103.8,108.1,97.8,108.1L97.8,108.1z M98.1,87.8c-2.3,0-3.2,2.4-3.3,9.1c-0.2,7.6,1.2,9.9,3.1,9.9
				c1.9,0,3.2-1.9,3.2-9.7C101.1,90.2,100.1,87.8,98.1,87.8z"/>
		</g>
	</g>
</g>
</svg>
